<svg xmlns="http://www.w3.org/2000/svg" width="30" height="30" viewBox="0 0 30 30" fill="none">
<circle cx="15" cy="15" r="15" fill="#FE2B26"/>
<g clip-path="url(#clip0_2007_2801)">
<path d="M23 14.3333V15C23.0035 16.1143 22.7742 17.217 22.3268 18.2375C21.8794 19.258 21.2237 20.1738 20.4018 20.9262C19.5799 21.6786 18.6099 22.251 17.554 22.6067C16.498 22.9624 15.3794 23.0936 14.2697 22.9919C13.1601 22.8902 12.084 22.5578 11.1103 22.016C10.1366 21.4742 9.28681 20.735 8.6154 19.8458C7.94398 18.9565 7.46574 17.9368 7.21132 16.8519C6.95691 15.7671 6.93192 14.6411 7.13796 13.546L7.23796 13H8.46663L8.55263 13.566C8.79396 15.1333 9.56529 17 11.8793 17C13.4133 17 15 16 15 14.3333C15.0002 13.4633 15.2859 12.6173 15.8133 11.9253C16.0102 12.6187 16.4279 13.2289 17.003 13.6635C17.5781 14.098 18.2792 14.3331 19 14.3331C19.7207 14.3331 20.4219 14.098 20.997 13.6635C21.572 13.2289 21.9897 12.6187 22.1866 11.9253C22.714 12.6173 22.9997 13.4633 23 14.3333ZM18.2 10.424C17.7834 10.5075 17.3828 10.6569 17.0133 10.8667C17.0133 10.912 17 10.9547 17 11C17 11.5304 17.2107 12.0391 17.5857 12.4142C17.9608 12.7893 18.4695 13 19 13C19.5304 13 20.0391 12.7893 20.4142 12.4142C20.7892 12.0391 21 11.5304 21 11C21 10.954 20.9893 10.9113 20.9866 10.8667C20.5458 10.6133 20.0607 10.4463 19.5573 10.3747C19.1593 8.06667 17.704 7 16.3333 7V8.33333C17.116 8.33333 17.898 9.05333 18.2 10.424Z" fill="white"/>
</g>
<defs>
<clipPath id="clip0_2007_2801">
<rect width="16" height="16" fill="white" transform="translate(7 7)"/>
</clipPath>
</defs>
<script xmlns=""/></svg>