<svg xmlns="http://www.w3.org/2000/svg" width="30" height="30" viewBox="0 0 30 30" fill="none">
<circle cx="15" cy="15" r="15" fill="#9DC147"/>
<path d="M22.0004 9.31311C21.9831 9.25234 21.9454 9.19935 21.8937 9.163C21.842 9.12666 21.7794 9.10916 21.7163 9.11342C14.9308 9.31206 10.2591 13.7423 9.58888 19.6098C9.58656 19.662 9.59862 19.7138 9.62374 19.7596C9.64887 19.8054 9.68609 19.8435 9.73136 19.8696C9.77662 19.8957 9.82819 19.9088 9.88043 19.9076C9.93267 19.9065 9.98357 19.8909 10.0276 19.8628L16.3276 15.63C14.9375 17.7623 13.0972 19.5643 10.936 20.909C9.97434 21.4966 8.94861 21.9722 7.87883 22.3265C7.80909 22.3509 7.75172 22.4017 7.7191 22.468C7.68648 22.5343 7.68124 22.6108 7.7045 22.6809C7.72775 22.7511 7.77764 22.8092 7.84341 22.8429C7.90918 22.8766 7.98555 22.8831 8.05604 22.8609C9.118 22.5077 10.1384 22.0399 11.0991 21.4659C13.7513 22.8694 16.6201 21.7303 16.7438 21.6797C24.6076 18.4284 22.0285 9.40311 22.0004 9.31311Z" fill="white"/>
<path d="M9.42847 17.5453C10.1169 15.0928 11.5545 12.9167 13.5404 11.3212C13.2301 9.56933 12.0176 7.63743 10.3735 7.13905C10.3274 7.12413 10.2783 7.12147 10.231 7.13133C10.1836 7.1412 10.1397 7.16325 10.1035 7.1953C8.16166 8.88385 5.87401 13.5934 9.42847 17.5453Z" fill="white"/>
<script xmlns=""/></svg>