<svg width="20" height="20" viewBox="0 0 20 20" fill="none" xmlns="http://www.w3.org/2000/svg">
<g clip-path="url(#clip0_2009_2805)">
<path d="M14.5833 1.59753C13.645 1.61213 12.727 1.87408 11.9223 2.35693C11.1176 2.83977 10.4545 3.52642 10 4.34753C9.54553 3.52642 8.88244 2.83977 8.0777 2.35693C7.27295 1.87408 6.35504 1.61213 5.41667 1.59753C3.92078 1.66253 2.51142 2.31691 1.49648 3.41773C0.481548 4.51854 -0.0564605 5.97631 -1.6964e-06 7.47253C-1.6964e-06 11.2617 3.98833 15.4 7.33333 18.2059C8.08018 18.8335 9.02446 19.1776 10 19.1776C10.9755 19.1776 11.9198 18.8335 12.6667 18.2059C16.0117 15.4 20 11.2617 20 7.47253C20.0565 5.97631 19.5185 4.51854 18.5035 3.41773C17.4886 2.31691 16.0792 1.66253 14.5833 1.59753Z" fill="#FE2B26"/>
</g>
<defs>
<clipPath id="clip0_2009_2805">
<rect width="20" height="20" fill="white"/>
</clipPath>
</defs>
</svg>
