<svg xmlns="http://www.w3.org/2000/svg" width="63" height="23" viewBox="0 0 63 23" fill="none">
<rect width="62.2139" height="22.864" rx="11.432" fill="#FF6D21"/>
<path d="M54.264 8.182H56.214V14.682H54.264V14.071C53.835 14.565 53.198 14.864 52.327 14.864C50.624 14.864 49.22 13.369 49.22 11.432C49.22 9.495 50.624 8 52.327 8C53.198 8 53.835 8.299 54.264 8.793V8.182ZM52.717 13.018C53.614 13.018 54.264 12.407 54.264 11.432C54.264 10.457 53.614 9.846 52.717 9.846C51.82 9.846 51.17 10.457 51.17 11.432C51.17 12.407 51.82 13.018 52.717 13.018Z" fill="white"/>
<path d="M49.2214 14.682H47.0114L44.9314 11.809V14.682H42.9814V8.18201H44.9314V11.029L46.8814 8.18201H49.1564L46.7904 11.432L49.2214 14.682Z" fill="white"/>
<path d="M39.6004 8.18201H41.5504V14.682H39.6004V12.342H37.3904V14.682H35.4404V8.18201H37.3904V10.522H39.6004V8.18201Z" fill="white"/>
<path d="M32.5794 8.18201H34.0094V14.682H32.1114V11.432L29.3294 14.682H27.8994V8.18201H29.7974V11.432L32.5794 8.18201Z" fill="white"/>
<path d="M26.058 11.354C26.617 11.653 26.929 12.16 26.929 12.823C26.929 13.902 26.162 14.682 24.719 14.682H21.209V8.18201H24.459C25.902 8.18201 26.669 8.96201 26.669 10.041C26.669 10.6 26.461 11.055 26.058 11.354ZM24.251 9.74201H23.029V10.652H24.251C24.602 10.652 24.823 10.522 24.823 10.21C24.823 9.88501 24.602 9.74201 24.251 9.74201ZM24.459 13.07C24.797 13.07 25.031 12.914 25.031 12.589C25.031 12.277 24.797 12.134 24.459 12.134H23.029V13.07H24.459Z" fill="white"/>
<path d="M16.6611 14.864C14.7501 14.864 13.2161 13.369 13.2161 11.432C13.2161 9.495 14.7501 8 16.6611 8C18.5721 8 20.1061 9.495 20.1061 11.432C20.1061 13.369 18.5721 14.864 16.6611 14.864ZM16.6611 12.966C17.5061 12.966 18.1561 12.355 18.1561 11.432C18.1561 10.509 17.5061 9.898 16.6611 9.898C15.8161 9.898 15.1661 10.509 15.1661 11.432C15.1661 12.355 15.8161 12.966 16.6611 12.966Z" fill="white"/>
<path d="M10.16 8.18201H12.11V14.682H10.16V12.342H7.95V14.682H6V8.18201H7.95V10.522H10.16V8.18201Z" fill="white"/>
<script xmlns=""/></svg>